<svg width="48" height="48" viewBox="0 0 49 49" fill="none" xmlns="http://www.w3.org/2000/svg">
  <path d="M17.318 27h13.338v1H17.318v-1Z" fill="#B77EB6"/>
  <path d="M19.707 27.5a2 2 0 1 1-4 0 2 2 0 0 1 4 0Zm14.2 0a2 2 0 1 1-4 0 2 2 0 0 1 4 0Zm-7.093 0a2 2 0 1 1-4 0 2 2 0 0 1 4 0Z" fill="#B77EB6"/>
  <path d="M37.791 15.5a2 2 0 0 1 2 2v4a2 2 0 0 0 2 2h1v2h-1a2 2 0 0 0-2 2v4a2 2 0 0 1-2 2h-2v-2h2v-5a2 2 0 0 1 2-2 2 2 0 0 1-2-2v-5h-2v-2h2Zm-27.414.586a2 2 0 0 1 1.414-.586h2v2h-2v5a2 2 0 0 1-2 2 2 2 0 0 1 2 2v5h2v2h-2a2 2 0 0 1-2-2v-4a2 2 0 0 0-2-2h-1v-2h1a2 2 0 0 0 2-2v-4a2 2 0 0 1 .586-1.414Z" fill="#57ACDC"/>
</svg>
